<svg xmlns="http://www.w3.org/2000/svg" viewBox="0 0 240 240"><path d="m134.8 165.2-38.2-20.6c-13.7 14.5-36.8 15.3-51.5 1.7-14.7-13.6-15.5-36.4-1.7-50.9s36.8-15.3 51.5-1.7c.6.5 1.2 1.1 1.7 1.7l38.2-20.6c-4.9-19.3 6.9-38.8 26.4-43.7s39.3 6.8 44.2 26.1c4.9 19.3-6.9 38.8-26.4 43.7-12.8 3.2-26.4-.7-35.5-10.3l-38.2 20.6c1.5 5.8 1.5 11.8 0 17.6l38.2 20.6c13.8-14.5 36.8-15.3 51.5-1.7 14.7 13.6 15.4 36.4 1.7 50.9-13.8 14.5-36.8 15.3-51.5 1.7-9.7-9-13.7-22.4-10.4-35.1zM69.9 138c10.1 0 18.2-8.1 18.2-18s-8.2-18-18.2-18-18.2 8.1-18.2 18 8.2 18 18.2 18zm100.2-54c10.1 0 18.2-8.1 18.2-18s-8.2-18-18.2-18-18.2 8.1-18.2 18 8.1 18 18.2 18zm0 108c10.1 0 18.2-8.1 18.2-18s-8.2-18-18.2-18-18.2 8.1-18.2 18 8.1 18 18.2 18z"/></svg>