<svg xmlns="http://www.w3.org/2000/svg" class="jw-svg-icon jw-svg-icon-forward" viewBox="0 0 240 240"><path d="m118.4 43.1-12.5-17.5L120.7 15l26.5 37-26.5 37-14.8-10.4 12.5-17.4c-39.5 1-71.2 33.2-71.2 72.8 0 40.2 32.5 72.7 72.8 72.7s72.8-32.5 72.8-72.7c0-14.3-4.2-28.1-11.9-39.7l15.3-9.9c9.6 14.7 14.8 31.8 14.8 49.7 0 50.2-40.7 90.8-91 90.8s-91-40.6-91-90.8c-.1-49.8 39.8-90.1 89.4-91zM88.6 170.3v-50.8l-15 4.7v-10.6l27.1-7.7v64.4H88.6zm53.1 1.4c-5.1 0-9.6-1.4-13.4-4.1-3.8-2.7-6.8-6.5-8.9-11.4-2.1-4.9-3.1-10.7-3.1-17.5 0-6.6 1.1-12.5 3.1-17.5 2.1-5 5-8.9 8.9-11.5 3.9-2.7 8.3-4.1 13.4-4.1s9.6 1.4 13.4 4.1c3.9 2.7 6.8 6.5 8.9 11.5 2.1 5 3.1 10.8 3.1 17.5 0 6.8-1.1 12.6-3.1 17.5-2.1 4.9-5 8.7-8.9 11.4-3.8 2.7-8.3 4.1-13.4 4.1zm0-10.8c4 0 7.2-2 9.6-5.9 2.4-4 3.6-9.4 3.6-16.3s-1.2-12.5-3.6-16.3c-2.5-4-5.6-5.9-9.6-5.9s-7.2 2-9.6 5.9c-2.5 4-3.6 9.4-3.6 16.3s1.2 12.5 3.6 16.3c2.4 4 5.6 5.9 9.6 5.9zm.6-82.2 19-26.6-19-26.6L157.1 15l26.5 37-26.5 37-14.8-10.3z"/></svg>