<svg xmlns="http://www.w3.org/2000/svg" class="jw-svg-icon jw-svg-icon-rewind" viewBox="0 0 240 240"><path d="m124.1 61.3 12.4 17.3-14.8 10.6-26.5-37.1L121.7 15l14.8 10.6L124 43.1c48.4 2.1 87 42 87 90.9 0 50.2-40.7 91-91 91s-91-40.7-91-91c0-17.9 5.2-35.1 14.8-49.8l15.2 10c-7.7 11.7-11.8 25.5-11.8 39.8 0 40.2 32.6 72.8 72.8 72.8s72.8-32.6 72.8-72.8c0-38.8-30.4-70.5-68.7-72.7zM87.9 170.4v-50.9l-15.1 4.6v-10.6l27.1-7.6v64.5h-12zm53.1 1.4c-5.1 0-9.6-1.3-13.4-4-3.8-2.7-6.8-6.5-8.9-11.5-2.1-4.9-3.1-10.8-3.1-17.5 0-6.7 1-12.5 3.1-17.5s5.1-8.8 8.9-11.5c3.8-2.7 8.3-4 13.4-4s9.6 1.3 13.4 4c3.8 2.7 6.8 6.5 8.9 11.5 2.1 5 3.1 10.8 3.1 17.5 0 6.7-1 12.6-3.1 17.5s-5.1 8.8-8.9 11.5c-3.8 2.6-8.3 4-13.4 4zm0-10.8c4 0 7.2-2 9.6-5.9 2.4-3.9 3.6-9.4 3.6-16.4 0-7-1.2-12.4-3.6-16.4-2.4-3.9-5.6-5.9-9.6-5.9s-7.2 2-9.6 5.9-3.6 9.4-3.6 16.4c0 7 1.2 12.4 3.6 16.4 2.4 4 5.6 5.9 9.6 5.9zM81.1 52.1l19 26.6-14.8 10.6-26.5-37.2L85.3 15l14.8 10.6-19 26.5z"/></svg>