<svg class="jw-svg-icon jw-svg-icon-settings" xmlns="http://www.w3.org/2000/svg" viewBox="0 0 240 240"><path d="M29.5 120c0-7.8 1-15.3 2.9-22.5 15 .8 27.8-10.6 28.5-25.5.3-5.7-1.2-11.3-4.3-16.1C67.5 45.3 81 37.6 95.8 33.5c6.8 13.3 23.1 18.5 36.5 11.8 5.1-2.6 9.3-6.7 11.9-11.8 14.8 4.1 28.3 11.8 39.2 22.5-8.2 12.5-4.6 29.1 8 37.2 4.8 3.1 10.5 4.6 16.2 4.3 1.9 7.2 2.9 14.7 2.9 22.5s-1 15.3-2.9 22.5c-15-.8-27.8 10.6-28.5 25.5-.3 5.7 1.2 11.3 4.3 16.1-10.9 10.7-24.4 18.4-39.2 22.5-6.8-13.3-23.1-18.5-36.5-11.8-5.1 2.6-9.3 6.7-11.9 11.8-14.8-4.2-28.3-11.9-39.2-22.6 8.2-12.5 4.6-29.1-8-37.2-4.8-3.1-10.5-4.6-16.2-4.3-1.9-7.2-2.9-14.7-2.9-22.5zM73 146.9c5.7 9.8 7.3 21.1 5.1 31.6 3.7 2.6 7.6 4.9 11.7 6.7 8.3-7.4 19-11.4 30.2-11.4 11.4 0 22.1 4.2 30.2 11.4 4.1-1.9 8-4.1 11.7-6.7-2.3-10.8-.5-22.1 5.1-31.6 5.6-9.6 14.5-16.8 25.1-20.2.4-4.5.4-9 0-13.5-10.6-3.4-19.5-10.6-25.1-20.2-5.6-9.6-7.4-20.8-5.1-31.6-3.7-2.6-7.6-4.9-11.7-6.7-8.3 7.4-19 11.4-30.2 11.4-11.1 0-21.9-4.1-30.2-11.4-4.1 1.9-8 4.1-11.7 6.7 2.3 10.8.5 22.1-5.1 31.6-5.6 9.6-14.5 16.8-25.1 20.2-.4 4.5-.4 9 0 13.5 10.6 3.5 19.5 10.7 25.1 20.2zm47 0c-15 0-27.2-12.1-27.2-26.9S105 93.1 120 93.1s27.2 12.1 27.2 26.9-12.2 26.9-27.2 26.9zm0-17.9c5 0 9.1-4 9.1-9s-4.1-9-9.1-9-9.1 4-9.1 9c.1 5 4.1 9 9.1 9z"/></svg>