<svg xmlns="http://www.w3.org/2000/svg" class="jw-svg-icon jw-svg-icon-quality-100" viewBox="0 0 240 240"><path d="M67.5 174c5-14.1 20.4-21.4 34.5-16.5 7.7 2.7 13.8 8.8 16.5 16.5H210v18h-91.5c-5 14.1-20.4 21.4-34.5 16.5-7.7-2.7-13.8-8.8-16.5-16.5H30v-18h37.5zm54-63c5-14.1 20.4-21.4 34.5-16.5 7.7 2.7 13.8 8.8 16.5 16.5H210v18h-37.5c-5 14.1-20.4 21.4-34.5 16.5-7.7-2.7-13.8-8.8-16.5-16.5H30v-18h91.5zm-54-63c5-14.1 20.4-21.4 34.5-16.5 7.7 2.7 13.8 8.8 16.5 16.5H210v18h-91.5c-5 14.1-20.4 21.4-34.5 16.5-7.7-2.7-13.8-8.8-16.5-16.5H30V48h37.5zM93 66c5 0 9-4 9-9s-4-9-9-9-9 4-9 9 4 9 9 9zm54 63c5 0 9-4 9-9s-4-9-9-9-9 4-9 9 4 9 9 9zm-54 63c5 0 9-4 9-9s-4-9-9-9-9 4-9 9 4 9 9 9z"/></svg>