<svg class="jw-svg-icon jw-svg-icon-volume-0" xmlns="http://www.w3.org/2000/svg" viewBox="0 0 240 240"><path d="m72.6 67.1 46.8-31.3c4.8-3.2 11.4-1.9 14.6 2.9 1.2 1.7 1.8 3.8 1.8 5.9v150.8c0 5.8-4.7 10.6-10.5 10.6-2.1 0-4.1-.6-5.8-1.8l-46.8-31.4H30.5c-5.8 0-10.5-4.8-10.5-10.6V77.7c0-5.8 4.7-10.6 10.5-10.6h42.1zm10.6 21.2H41.1v63.4h42.1l31.6 23V65.2L83.2 88.3zm102.2 9.5 17.5-26.5c1.6-2.4 4.6-3 6.9-1.3l8.1 6c2.2 1.7 2.8 4.9 1.2 7.4l-21.6 32.8 21.6 32.8c1.6 2.4 1 5.7-1.2 7.3l-8.1 6.1c-2.2 1.7-5.3 1.1-6.9-1.3l-17.5-26.5-17.4 26.5c-1.6 2.4-4.6 3-6.9 1.3l-8.1-6.1c-2.2-1.7-2.8-4.9-1.2-7.3l21.6-32.8-21.6-32.8c-1.6-2.4-1-5.7 1.2-7.4l8.1-6c2.2-1.7 5.3-1.1 6.9 1.3l17.4 26.5z"/></svg>