<svg class="jw-svg-icon jw-svg-icon-volume-100" xmlns="http://www.w3.org/2000/svg" viewBox="0 0 240 240"><path d="m72.6 67.1 46.8-31.3c4.8-3.2 11.4-1.9 14.6 2.9 1.2 1.7 1.8 3.8 1.8 5.9v150.8c0 5.8-4.7 10.6-10.5 10.6-2.1 0-4.1-.6-5.8-1.8l-46.8-31.4H30.5c-5.8 0-10.5-4.8-10.5-10.6V77.7c0-5.8 4.7-10.6 10.5-10.6h42.1zm10.6 21.2H41.1v63.4h42.1l31.6 23V65.2L83.2 88.3zm73.6-41.6c40.3 5.8 68.2 43.4 62.4 83.9-4.7 32.5-30.1 58-62.4 62.7v-21.5c28.5-5.9 46.8-33.8 41-62.5a52.77 52.77 0 0 0-41-41.2V46.7zm0 43.4c16.4 5.8 25.1 24 19.3 40.5-3.2 9.1-10.3 16.2-19.3 19.4V90.1z"/></svg>