<svg xmlns="http://www.w3.org/2000/svg" class="jw-svg-icon jw-svg-icon-forward" viewBox="0 0 240 240"><path d="m130 65.8 14.3 17 44.1-37.2-12.2-8.2c-45.7-31.1-108-19.2-139 26.4S18.1 171.7 63.7 202.7s108 19.2 139-26.4c13.8-20.1 19.6-44.6 16.5-68.8l-22.1 2.8c5.2 42.7-25.2 81.5-67.8 86.7-38.4 4.7-74.4-19.6-84.6-56.9-11.1-41.4 13.5-84.1 55-95.3 15.7-4.2 32.3-3.4 47.6 2.3l3.2 1.2L130 65.8zM80.5 90.7h13.2v65.8H80.5V90.7zm50-3.3c13.1 0 23.7 9.7 23.7 21.7V138c0 12-10.6 21.7-23.7 21.7s-23.7-9.7-23.7-21.7v-29c-.1-11.9 10.6-21.6 23.7-21.6zm0 12.1c-5.8 0-10.5 4.3-10.5 9.7V138c0 5.3 4.7 9.7 10.5 9.7s10.5-4.3 10.5-9.7v-29c0-5.2-4.8-9.5-10.5-9.5z"/></svg>