<svg class="jw-svg-icon jw-svg-icon-settings" xmlns="http://www.w3.org/2000/svg" viewBox="0 0 240 240"><path d="M169.1 54.3h32.7c2.3 0 4.7 2.4 4.7 4.9v9.7c0 2.4-2.3 4.9-4.7 4.9h-32.7V54.3zm-130.9 0H113c2.3 0 4.7 2.4 4.7 4.9v9.7c0 2.4-2.3 4.9-4.7 4.9H38.2c-2.3 0-4.7-2.4-4.7-4.9v-9.7c0-2.5 2.4-4.9 4.7-4.9zM145.7 30C128.2 30 113 45.8 113 64s15.2 34.1 32.7 34.1 32.7-15.8 32.7-34.1-15.2-34-32.7-34zm0 19.4c8.2 0 14 6.1 14 14.6s-5.8 14.6-14 14.6-14-6.1-14-14.6 5.8-14.6 14-14.6zM70.9 166.2H38.2c-2.3 0-4.7 2.4-4.7 4.9v9.7c0 2.4 2.3 4.9 4.7 4.9h32.7v-19.5zm130.9 0H127c-2.3 0-4.7 2.4-4.7 4.9v9.7c0 2.4 2.3 4.9 4.7 4.9h74.8c2.3 0 4.7-2.4 4.7-4.9v-9.7c0-2.4-2.4-4.9-4.7-4.9zM94.3 141.9c17.5 0 32.7 15.8 32.7 34.1s-15.2 34-32.7 34-32.7-15.8-32.7-34 15.2-34.1 32.7-34.1zm0 19.5c-8.2 0-14 6.1-14 14.6s5.8 14.6 14 14.6 14-6.1 14-14.6-5.8-14.6-14-14.6z"/></svg>