<svg xmlns="http://www.w3.org/2000/svg" class="jw-svg-icon jw-svg-icon-rewind" viewBox="0 0 240 240"><path d="m110 65.8-14.2 17-44.2-37.2 12.2-8.2c45.7-31.1 108-19.2 139 26.4s19.2 107.9-26.4 138.9-108 19.2-139-26.4c-13.8-20.1-19.6-44.6-16.5-68.8l22.1 2.8c-5.2 42.7 25.1 81.5 67.8 86.7 38.4 4.8 74.5-19.6 84.6-56.9 11.1-41.4-13.5-84.1-55-95.3-15.7-4.2-32.3-3.4-47.6 2.3l-3.2 1.2L110 65.8zM83.2 90.7h13.2v65.8H83.2V90.7zm50.1-3.3c13.1 0 23.7 9.7 23.7 21.7V138c0 12-10.6 21.7-23.7 21.7s-23.7-9.7-23.7-21.7v-29c-.1-11.9 10.5-21.6 23.7-21.6zm0 12.1c-5.8 0-10.5 4.3-10.5 9.7V138c0 5.3 4.7 9.7 10.5 9.7s10.5-4.3 10.5-9.7v-29c-.1-5.2-4.8-9.5-10.5-9.5z"/></svg>