<svg xmlns="http://www.w3.org/2000/svg" viewBox="0 0 640 240" class="js-svg-icon jw-svg-icon-forward" focusable="false"><path d="m595.8 122.6-107.6 74.5c-3.4 2.4-8 1.6-10.5-1.8-.9-1.2-1.4-2.7-1.4-4.3V42c0-1.5.5-3 1.4-4.3 2.5-3.3 7.1-4.1 10.5-1.8l107.6 74.6c3.3 2.2 4.2 6.8 2 10.1-.5.8-1.2 1.5-2 2zm-89.3-37.7v63.4l45.7-31.7-45.7-31.7zM352.4 197.1c-1.3.9-2.8 1.4-4.3 1.4-4.1.1-7.5-3.3-7.5-7.4V42c0-1.5.5-3 1.4-4.3 2.5-3.3 7.1-4.1 10.5-1.8L460 110.5c3.3 2.2 4.2 6.8 2 10.1-.5.8-1.2 1.4-2 2l-107.6 74.5zm18.3-112.2v63.4l45.7-31.7-45.7-31.7zM212.5 204.7c-39.5 0-64-32-64-85.2s24.5-83.9 64-83.9c40.8 0 65.3 30.6 64 83.9-.1 54.5-23.2 85.2-64 85.2zm0-141.1c-20.4 0-34 20-34 55.9 0 37.3 13.6 55.9 34 55.9 21.8 0 34-20 34-55.9 0-37.3-13.6-55.9-34-55.9zm-132 8L41 95.5v-32l40.8-26.6h29.9v163.7H80.5v-129z"/></svg>