<svg xmlns="http://www.w3.org/2000/svg" class="jw-svg-icon jw-svg-icon-settings" viewBox="0 0 240 240" focusable="false"><path d="M60 49.4c9.2-8.7 20.1-15.3 31.9-19.4 12.3 16.2 34.9 19 50.4 6.1 2.2-1.8 4.2-3.9 5.8-6.1 11.8 4.1 22.7 10.7 31.9 19.4-4 10.7-3.1 22.8 2.4 32.7 5.4 10 14.9 16.8 25.8 18.5 2.5 12.8 2.5 26 0 38.7-10.8 1.7-20.3 8.6-25.8 18.5-5.5 10-6.4 22-2.4 32.7-9.3 8.7-20.1 15.3-31.9 19.4-12.3-16.2-34.9-19-50.4-6.1-2.2 1.8-4.2 3.9-5.8 6.1-11.8-4.1-22.7-10.7-31.9-19.4 4-10.7 3.1-22.8-2.4-32.7-5.4-10-14.9-16.8-25.7-18.5-2.5-12.8-2.5-26 0-38.8 10.8-1.7 20.3-8.6 25.7-18.5 5.5-9.8 6.3-21.9 2.4-32.6zm73.5 95.3c13-7.8 17.5-25.1 10.1-38.8-7.3-13.6-23.6-18.4-36.6-10.8-.2.1-.3.2-.5.3-12.9 8-17.2 25.4-9.7 38.9s23.8 18.1 36.7 10.4z"/></svg>