<svg xmlns="http://www.w3.org/2000/svg" viewBox="0 0 240 240" class="jw-svg-icon jw-svg-icon-cc-on" focusable="false"><path d="M209.7 199.8h-180c-5.5 0-10-4-10-8.9V48.7c0-4.9 4.5-8.9 10-8.9h180c5.5 0 10 4 10 8.9V191c0 4.9-4.5 8.8-10 8.8zM89.7 84.3c-22.1 0-40 15.9-40 35.6s17.9 35.6 40 35.6c10.6 0 20.8-3.7 28.3-10.4l-14.1-12.6c-3.7 3.3-8.8 5.2-14.1 5.2-11.1 0-20.1-8-20-17.8-.1-9.8 8.9-17.7 20-17.8 5.3 0 10.4 1.9 14.1 5.2L118 94.7c-7.4-6.7-17.6-10.4-28.3-10.4zm70 0c-22.1 0-40 15.9-40 35.6s17.9 35.6 40 35.6c10.6 0 20.8-3.7 28.3-10.4l-14.1-12.6c-3.7 3.3-8.8 5.2-14.1 5.2-11.1 0-20.1-8-20-17.8-.1-9.8 8.9-17.7 20-17.8 5.3 0 10.4 1.9 14.1 5.2L188 94.7c-7.4-6.7-17.6-10.4-28.3-10.4z"/></svg>