<svg xmlns="http://www.w3.org/2000/svg" class="jw-svg-icon jw-svg-icon-cc-off" viewBox="0 0 240 240" focusable="false"><path d="M209.9 39.9c5.5 0 10 4 10 8.9V191c0 4.9-4.5 8.9-10 8.9h-180c-5.5 0-10-4-10-8.9V48.8c0-4.9 4.5-8.9 10-8.9h180zm-10 17.8h-160v124.4h160V57.7zm-110 26.7c11 0 21 4 28.3 10.4L104 107.4c-3.7-3.3-8.8-5.2-14.1-5.2-11.1 0-20.1 8-20 17.8-.1 9.8 8.9 17.7 20 17.8 5.5 0 10.5-2 14.1-5.2l14.1 12.6c-7.5 6.7-17.6 10.4-28.3 10.4-22.1 0-40-15.9-40-35.6s18-35.6 40.1-35.6zm70 0c11 0 21 4 28.3 10.4L174 107.4c-3.7-3.3-8.8-5.2-14.1-5.2-11.1 0-20.1 8-20 17.8-.1 9.8 8.9 17.7 20 17.8 5.5 0 10.5-2 14.1-5.2l14.1 12.6c-7.5 6.7-17.6 10.4-28.3 10.4-22.1 0-40-15.9-40-35.6s18-35.6 40.1-35.6z"/></svg>