<svg xmlns="http://www.w3.org/2000/svg" viewBox="0 0 640 240" class="js-svg-icon jw-svg-icon-rewind" focusable="false"><path d="M533.9 198.5c-40.1 0-65.1-30.6-65.1-81.6s24.9-80.3 65.1-80.3c41.5 0 66.4 29.3 65.1 80.3-.1 52.3-23.6 81.6-65.1 81.6zm0-135.2c-20.8 0-34.6 19.1-34.6 53.5 0 35.7 13.8 53.5 34.6 53.5 22.1 0 34.6-19.1 34.6-53.5 0-35.6-13.8-53.5-34.6-53.5zM399.6 71l-40.1 23V63.3L401 37.8h30.5v156.8h-31.8c-.1.1-.1-123.6-.1-123.6zM296.3 192.6c-1.6 0-3.1-.5-4.4-1.3l-109.5-71.4c-3.4-2.2-4.3-6.6-1.9-9.7.5-.7 1.2-1.3 1.9-1.8L291.9 37c3.5-2.3 8.2-1.5 10.7 1.7.9 1.2 1.4 2.6 1.4 4.1v142.8c-.1 3.8-3.5 7-7.7 7zm-23-108.9L226.8 114l46.5 30.3V83.7zM153.7 191.3 44.2 119.9c-3.4-2.2-4.3-6.6-1.9-9.7.5-.7 1.2-1.3 1.9-1.8L153.7 37c3.5-2.3 8.2-1.5 10.7 1.7.9 1.2 1.4 2.6 1.4 4.1v142.8c0 1.5-.5 2.9-1.4 4.1-2.5 3.1-7.2 3.8-10.7 1.6zM135.1 83.7 88.6 114l46.5 30.3V83.7z"/></svg>