<svg class="jw-svg-icon jw-svg-icon-forward" xmlns="http://www.w3.org/2000/svg" viewBox="0 0 240 240"><path d="m84.3 127.8-3.8-7.3 15.9-9h10v44.8h12.2v8.5H83.3v-8.1H97v-35.8l-12.7 6.9zm51.8 36.1c-2.4-1.2-4.5-3.1-6.1-5.3-1.7-2.6-2.9-5.6-3.5-8.6-.8-3.8-1.2-7.7-1.2-11.6 0-3.9.4-7.8 1.2-11.6.6-3.1 1.8-6 3.5-8.6 1.6-2.2 3.7-4.1 6.1-5.3 2.7-1.3 5.7-1.9 8.8-1.9 5.8-.4 11.4 2.2 14.8 6.9 3.5 6.1 5.2 13.1 4.8 20.2.4 7.1-1.3 14.1-4.8 20.2-3.2 4.9-8.9 7.8-14.8 7.5-3.1 0-6.1-.6-8.8-1.9zm18.1-20.8v-9.5c.1-3.6-.5-7.1-2-10.3-2.5-3.9-7.6-5-11.5-2.6-1 .7-1.9 1.5-2.6 2.6-1.4 3.2-2.1 6.8-2 10.3v9.5c-.1 3.6.5 7.1 2 10.4 1.3 2.5 3.9 3.9 6.7 3.8 2.8.2 5.5-1.3 6.8-3.8 1.7-3.2 2.5-6.8 2.6-10.4zm34.1-5.9H202c0 45.7-36.7 82.8-82 82.8s-82-37.1-82-82.8c0-45.7 36.7-82.8 82-82.8h27.3V20l41 41.4-41 41.4V68.3H120c-37.7 0-68.3 30.9-68.3 69s30.6 69 68.3 69c37.7-.1 68.3-31 68.3-69.1z"/></svg>