<svg class="jw-svg-icon jw-svg-icon-volume-100" xmlns="http://www.w3.org/2000/svg" viewBox="0 0 240 240"><path d="M102.8 50.1 74.1 78.2H49.2c-22.3 0-25.1.2-27 2.4-2 2.1-2.2 6.9-2.2 39.8 0 34.4.1 37.5 2.4 39.4 2.1 2 6.1 2.2 27.8 2.2h25.2l27.1 27.5c15.8 15.8 28.6 27.9 30.4 28.3 2.2.5 4.1 0 5.9-1.4 2.7-2.4 2.7-4.7 2.7-96.2 0-89.3-.1-94-2.4-96-1.4-1.3-3.2-2.1-5.1-2.2-1.5 0-13.8 10.9-31.2 28.1zm24 70.4v73.7L103 170.9l-23.8-23.2H34.7V91.5h46.1l22.7-22.2c12.4-12.3 22.8-22.2 23-22.2.2-.3.3 32.9.3 73.4zm67.6-51.2c-4.7 3.9-4.8 4.4-2.8 7 18.8 25.5 18.6 62-.7 86l-3.8 4.7 5.4 4.5 5.3 4.5 3.9-4.6c5.9-6.9 13.9-24.2 16.6-35.7 4.1-19 .4-40.9-10.1-58.5-7.3-12.6-8.1-13-13.8-7.9zm-29.1 18.2-4.9 3.9 3.9 7c8.2 15 6.9 35.5-2.9 46.2-2.6 2.6-2.4 2.7 2.8 7.7 5.2 5 5.3 5 7.4 2.5 1.1-1.3 4.1-6.6 6.7-11.9 8.6-17 7.6-35.8-2.6-52.5-2.2-3.7-4.6-6.9-4.9-6.9-.3.2-2.8 1.9-5.5 4z"/></svg>