<svg class="jw-svg-icon jw-svg-icon-settings" xmlns="http://www.w3.org/2000/svg" viewBox="0 0 240 240"><path d="M205.5 104.2 192.8 115v9.9l12.5 11.2c4.8 4.1 5.9 10.8 2.7 16.2L192.9 178c-2.4 4-6.8 6.5-11.5 6.5-1.4 0-2.9-.2-4.2-.6l-16-5.3c-2.8 1.8-5.7 3.4-8.7 4.8l-3.4 16.2c-1.2 6.1-6.8 10.5-13.2 10.4h-31.3c-6.4.1-12-4.3-13.2-10.4L88 183.4c-3-1.4-5.9-3-8.7-4.8l-16.1 5.3c-1.4.4-2.8.7-4.2.6-4.7 0-9-2.4-11.5-6.5l-15.6-25.8c-3.3-5.4-2.2-12.4 2.7-16.4L47.1 125v-9.9L34.6 104c-4.8-4-5.9-10.9-2.7-16.2L47.5 62c2.4-4 6.8-6.5 11.5-6.4 1.4-.1 2.9 0 4.2.4L79 61.5c2.8-1.8 5.7-3.4 8.7-4.8l3.4-16.2c1.2-6.1 6.8-10.5 13.2-10.4h31c6.4-.1 12 4.3 13.2 10.4l3.4 16.2c3 1.4 5.9 3 8.7 4.8l16.1-5.3c1.4-.4 2.8-.7 4.2-.6 4.7 0 9.1 2.5 11.5 6.4L208 87.8c3.4 5.3 2.3 12.3-2.5 16.4zm-24.6-35.8-22.8 7.2c-5.4-4.3-11.4-7.8-17.9-10.1l-4.7-22.9h-31.3l-4.7 23.1C93 68 86.9 71.4 81.6 75.8L59 68.4 43.4 94.2l18 15.9c-1.2 6.7-1.2 13.5 0 20.2l-18 15.5L59 171.6l22.8-7.2c5.3 4.3 11.4 7.7 17.9 10.1l4.7 22.9h31.3l4.7-23.1c6.5-2.3 12.6-5.7 17.9-10.1l22.7 7.5 15.6-25.8-18-15.9c1.2-6.7 1.2-13.5 0-20.2l18-15.5c0-.1-15.7-25.9-15.7-25.9zm-60.1 90.3h-.8c-21.9 0-39.7-17.3-39.7-38.7S98 81.3 120 81.3s39.7 17.3 39.7 38.7c.2 21.1-17.2 38.5-38.9 38.7zm25.6-38.7c.3-13.9-11-25.5-25.3-25.8h-1.2c-14.3-.3-26.2 10.7-26.5 24.6v1.2c-.3 13.9 11 25.5 25.3 25.8h1.2c14.3.3 26.1-10.7 26.5-24.6.1-.4.1-.8 0-1.2z"/></svg>