<svg class="jw-svg-icon jw-svg-icon-quality-100" xmlns="http://www.w3.org/2000/svg" viewBox="0 0 240 240"><path d="M203.1 210h-38.8c-3.8 0-6.9-3.1-6.9-6.9V92.3c0-3.8 3.1-6.9 6.9-6.9h38.8c3.8 0 6.9 3.1 6.9 6.9v110.8c0 3.8-3.1 6.9-6.9 6.9zm-7-110.8h-24.9v96.9h24.9V99.2zM139.4 210h-38.8c-3.8 0-6.9-3.1-6.9-6.9V36.9c0-3.8 3.1-6.9 6.9-6.9h38.8c3.8 0 6.9 3.1 6.9 6.9v166.2c0 3.8-3.1 6.9-6.9 6.9zm-6.9-166.2h-24.9v152.3h24.9V43.8zM75.7 210H36.9c-3.8 0-6.9-3.1-6.9-6.9v-77.5c0-3.8 3.1-6.9 6.9-6.9h38.8c3.8 0 6.9 3.1 6.9 6.9v77.5c0 3.8-3.1 6.9-6.9 6.9zm-6.9-77.5H43.9v63.7h24.9v-63.7z"/></svg>