<svg class="jw-svg-icon jw-svg-icon-audio-tracks" xmlns="http://www.w3.org/2000/svg" viewBox="0 0 240 240"><path d="M186.7 205h-8c-6.6.1-11.9-5.2-12-11.8v-54.9c0-6.5 5.4-11.8 12-11.8h8c7.5 0 14.4 2.6 20 6.7v-.1c0-46.9-38.8-85-86.7-85s-86.7 38.1-86.7 85v.1c5.8-4.3 12.8-6.7 20-6.7h8.2c6.5.1 11.7 5.3 11.8 11.8v54.9c0 6.4-5.3 11.7-11.8 11.8h-8.2C34.9 205 20 190.4 20 172.3v-39.2C20 78.9 64.8 35 120 35s100 43.9 100 98.1v39.2c0 18.1-14.9 32.7-33.3 32.7zM33.3 165.8v6.5c0 10.8 9 19.6 20 19.6H60v-52.3h-6.7c-11 0-20 8.8-20 19.6v6.6zm173.4-6.6c0-10.8-9-19.6-20-19.6H180v52.3h6.7c11 0 20-8.8 20-19.6v-13.1z"/></svg>