<svg class="jw-svg-icon jw-svg-icon-download" xmlns="http://www.w3.org/2000/svg" viewBox="0 0 240 240"><path d="M55.2 210h129.3c14 0 25.4-11.4 25.4-25.4v-36.9c0-3.8-3.1-6.9-6.9-6.9s-6.9 3.1-6.9 6.9v36.9c0 6.4-5.2 11.5-11.5 11.5H55.3c-6.4 0-11.5-5.2-11.5-11.5v-36.9c0-3.8-3.1-6.9-6.9-6.9-3.8 0-6.9 3.1-6.9 6.9v36.9c-.2 14 11.2 25.4 25.2 25.4zm59.8-57.4c.7.6 1.4 1.1 2.3 1.5.8.4 1.7.5 2.6.5.9 0 1.8-.2 2.6-.5s1.6-.8 2.2-1.5l46.3-46.2c2.7-2.7 2.7-7.1 0-9.8-2.7-2.7-7.1-2.7-9.8 0l-34.3 34.3v-94c0-3.8-3.1-6.9-6.9-6.9s-6.9 3.1-6.9 6.9V131L78.7 96.7c-2.7-2.7-7.1-2.7-9.8 0s-2.7 7.1 0 9.8c-.1 0 46.1 46.1 46.1 46.1z"/></svg>