<svg class="jw-svg-icon jw-svg-icon-play" xmlns="http://www.w3.org/2000/svg" viewBox="0 0 240 240"><path d="M119.9 6c62.9 0 113.8 51 113.8 113.8s-51 113.8-113.8 113.8S6.1 182.7 6.1 119.8 57.1 6 119.9 6z" style="fill:none"/><linearGradient id="a" gradientUnits="userSpaceOnUse" x1=".989" y1="239.648" x2="3.716" y2="239.648" gradientTransform="matrix(88 0 0 -88 -87 21209)"><stop offset="0" style="stop-color:#3db6d4"/><stop offset="1" style="stop-color:#6bcfa4"/></linearGradient><path d="M120 0c66.3 0 120 53.7 120 120s-53.7 120-120 120S0 186.3 0 120 53.7 0 120 0z" style="fill:url(#a)"/><path d="M88 169.9c-2.3 0-4.2-1.9-4.2-4.3V71.7c0-2.4 1.9-4.3 4.2-4.3.7 0 1.4.2 2 .5l84.9 47c2.1 1.2 2.8 3.8 1.7 5.8-.4.7-1 1.3-1.7 1.7l-84.9 47c-.6.4-1.3.5-2 .5z" style="fill-rule:evenodd;clip-rule:evenodd;fill:#fff"/></svg>