<svg class="jw-svg-icon jw-svg-icon-rewind" xmlns="http://www.w3.org/2000/svg" viewBox="0 0 240 240"><path d="M136.1 112.8c2.7-1.3 5.7-1.9 8.8-1.9 5.8-.4 11.4 2.2 14.8 6.9 3.5 6.1 5.2 13.1 4.8 20.2.4 7.1-1.3 14.1-4.8 20.2-3.2 4.9-8.9 7.8-14.8 7.5-3 .1-6-.6-8.8-1.9-2.4-1.2-4.5-3.1-6.1-5.3-1.7-2.6-2.9-5.6-3.6-8.6-.8-3.8-1.2-7.7-1.2-11.6 0-3.9.4-7.8 1.2-11.6.6-3.1 1.9-6 3.6-8.6 1.5-2.2 3.6-4 6.1-5.3zm0 30.3c-.1 3.6.5 7.1 2 10.4 1.3 2.5 3.9 3.9 6.7 3.8 2.8.2 5.5-1.3 6.8-3.8 1.6-3.2 2.5-6.8 2.5-10.4v-9.5c.1-3.6-.5-7.1-2-10.3-2.5-3.9-7.6-5-11.5-2.6-1 .7-1.9 1.5-2.6 2.6-1.4 3.2-2.1 6.8-2 10.3.1 0 .1 9.5.1 9.5zm-51.8-15.3-3.8-7.3 15.9-9h10v44.8h12.2v8.5H83.3v-8.1H97v-35.8l-12.7 6.9zM120 220c-45.3 0-82-37.1-82-82.8h13.7c0 38.1 30.6 69 68.3 69s68.3-30.9 68.3-69-30.6-69-68.3-69H92.7v34.5l-41-41.4 41-41.4v34.5H120c45.3 0 82 37.1 82 82.8 0 45.7-36.7 82.8-82 82.8z"/></svg>