<svg class="jw-svg-icon jw-svg-icon-volume-0" xmlns="http://www.w3.org/2000/svg" viewBox="0 0 240 240"><path d="M133.2 218c-2.2 0-4.4-1.1-4.4-2.2l-54.4-53.6H26.7c-4.4 0-6.7-3.3-6.7-6.6v-71c0-4.4 3.3-6.6 6.7-6.6h47.7l54.4-53.6c3.3-3.3 6.7-3.3 10 0 1.1 1.1 2.2 3.3 2.2 4.4v182.6c-.1 3.3-3.4 6.6-7.8 6.6zm-6.7-172.8L82.1 89c-1.1 1.1-2.2 2.2-4.4 2.2H33.3V147h43.3c2.2 0 4.4 1.1 4.4 2.2l44.4 43.7c1.1 1 1.1-147.7 1.1-147.7zM162 92.3c3.3-3.3 7.8-3.3 11.1 0l16.6 16.4 16.6-16.4c3.3-3.3 7.8-3.3 11.1 0s3.3 7.7 0 10.9l-16.6 16.4 16.6 16.4c3.3 3.3 3.3 7.7 0 10.9-3.3 3.3-7.8 3.3-11.1 0l-16.6-16.4-16.6 16.4c-3.3 3.3-7.8 3.3-11.1 0s-3.3-7.7 0-10.9l16.6-16.4-16.6-16.4c-3.3-3.3-3.3-7.7 0-10.9z"/></svg>