<svg class="jw-svg-icon jw-svg-icon-volume-50" xmlns="http://www.w3.org/2000/svg" viewBox="0 0 240 240"><path d="M116.4 34.7c12.8-9.7 19-3 19.4 8.8.5 15.8 2.5 48.7 2.5 76.5s-2.1 60.7-2.5 76.5c-.4 11.8-6.6 18.5-19.4 8.8-15-11.4-30.1-22.6-45.2-33.8-7-5.2-13.8-10.9-29.6-10.9s-22.2-9.7-23.1-18.6c-1-8.9-1.5-20.3-1.5-22s.5-13.2 1.5-22c.9-8.9 7.3-18.6 23.1-18.6s22.6-5.7 29.6-10.9 26.2-19.4 45.2-33.8zm56 44.6c9.4 10.9 14.6 24.9 14.6 39.4 0 16.1-6.5 31.5-17.9 42.9-3.6 3.6-9.8 2.9-12.8-1.3-2.4-3.3-2.2-8 .7-10.9 8.2-8.1 12.8-19.2 12.8-30.7 0-10.3-3.7-20.3-10.3-28.1-2.8-3.3-3-8-.3-11.3 3.1-3.7 8.6-4.1 12.3-1 .3.3.6.7.9 1z"/></svg>