<svg xmlns="http://www.w3.org/2000/svg" viewBox="0 0 240 240" class="jw-svg-icon jw-svg-icon-quality"><path d="M144.6 198.5c.6.6 1.2 1 2 1.2.8.2 1.8.1 2.9-.4 8.8-3.3 16.7-7.8 23.8-13.9 1.1-.6 1.8-1.2 2-2 .2-.8.1-1.8-.4-2.9-3.3-9.8-2.4-18.8 2.4-26.9 4.9-8.2 12.3-13.4 22.1-15.5 1.1 0 1.9-.2 2.4-.8.6-.6.8-1.3.8-2.4 1.1-4.9 1.7-9.6 1.7-14.2s-.6-9.6-1.7-15.1c0-1.7-1.1-2.4-3.3-2.4-6.6-1.1-12.3-3.8-17.2-8.2-4.9-4.3-8.1-9.6-9.4-15.9s-1-12.7 1.2-19.2c.6-1.1.7-2 .4-2.9-.2-.8-1-1.5-2-2-6-5.4-13.1-9.8-21.3-13-1.7-.6-3.3 0-4.9 1.7-3.3 3.8-7.1 6.8-11.5 8.9-4.3 2.2-9 3.3-13.9 3.3s-9.6-1.1-13.9-3.3c-4.3-2.2-8.2-5.4-11.5-9.8-.6-1.1-1.2-1.8-2-2-.8-.2-1.8-.1-2.9.4-8.8 3.3-16.7 7.8-23.8 13.9-.6.6-1 1.2-1.2 2s-.1 1.8.4 2.9c3.8 9.3 3.4 18.2-1.2 26.9S52.8 101 43 103.2l-3.3.8c-1.7.6-2.8 1.7-3.3 3.3-1.7 9.3-1.3 18.8.8 28.6 0 1.1.2 1.9.8 2.4.6.6 1.3.8 2.4.8 7.1 1.1 13.1 3.8 18 8.2 4.9 4.3 8.1 9.5 9.4 15.5 1.3 6 1 12.3-1.2 18.8-.6 1.7-.7 2.8-.4 3.3s1 1.3 2 2.4c6.6 4.9 13.9 8.9 22.1 12.3 1.7.6 3.3.2 4.9-.8 3.8-5.4 8.9-9.2 15.1-11 6.3-1.9 12.6-1.9 18.9 0 6.5 1.6 11.6 5.3 15.4 10.7zm9.9 15.6c-3.8 1.1-7.7 1.2-11.5.4-3.8-.8-7.3-3.1-10.7-7-3.3-3.8-7.6-5.7-12.7-5.7s-9.4 2.2-12.7 6.5c-2.8 3.3-6 5.3-9.9 6.1-3.8.8-7.9.7-12.3-.4-9.3-3.8-18-8.7-26.2-14.7-3.3-3.3-5.4-6.8-6.6-10.6-1.1-3.8-.8-8.2.8-13 1.7-4.9 1.1-9.5-1.7-13.9-2.8-4.3-6.6-6.8-11.5-7.4s-8.9-2.3-11.9-5.3-5-6.6-6.1-11c-2.2-10.9-2.2-22.1 0-33.5.6-3.8 2.2-7.2 4.9-10.2s6.3-4.7 10.7-5.3l2.4-.8c5.4-1.1 9.3-4 11.5-8.6 2.2-4.6 2.4-9.4.8-14.2-2.2-3.8-2.8-7.7-1.7-11.8s3.3-7.5 6.6-10.2c8.2-7.1 17.5-12.8 27.9-17.1 4.3-1.7 8.6-1.8 12.7-.4 4.1 1.3 7.6 3.6 10.2 7 3.8 4.9 8.3 7.4 13.6 7.4 5.2 0 9.7-2.2 13.6-6.5 2.8-3.8 6.1-6.1 10.2-7 4.1-.8 8.1-.4 11.9 1.2 9.9 3.8 18.3 8.7 25.5 14.7 3.8 3.3 6.3 6.8 7.3 10.6 1.1 3.8.8 7.8-.8 12.3-2.2 4.9-1.9 9.6.8 14.2 2.8 4.6 6.8 7.2 12.3 7.7 3.8.6 7.2 2.2 10.2 4.9 3 2.8 5 6.3 6.1 10.6 1.1 6.5 1.7 12.5 1.7 18 0 5.4-.6 10.6-1.7 15.5s-3 8.7-5.8 11.4-6.3 4.6-10.7 5.7c-5.4 1.1-9.4 3.6-11.9 7.7s-2.9 8.4-1.2 13 1.9 8.8.8 12.7c-1.1 3.8-3.3 7.1-6.6 9.8-8.2 7.1-17.5 12.8-27.9 17.1h-.6l.2.1zm4.1-93.9c0 10.4-3.8 19.3-11.5 26.9-7.7 7.6-16.7 11.4-27 11.4s-19.5-3.8-27-11.4c-7.7-7.6-11.5-16.6-11.5-26.9s3.8-19.3 11.5-26.9 16.7-11.4 27-11.4 19.5 3.8 27 11.4c7.6 7.6 11.5 16.5 11.5 26.9zm-38.5 22.9c6 0 11.3-2.2 16-6.5s7-9.8 7-16.3-2.2-11.9-6.6-16.3c-4.3-4.3-9.9-6.5-16.5-6.5s-12 2.2-16.5 6.5c-4.3 4.3-6.6 9.8-6.6 16.3s2.2 11.9 6.6 16.3c4.5 4.3 10 6.5 16.6 6.5z"/></svg>