<svg class="jw-svg-icon jw-svg-icon-volume-100" xmlns="http://www.w3.org/2000/svg" viewBox="0 0 240 240"><path d="M115.9 34.7c12.7-9.7 18.9-3 19.3 8.8.5 15.8 2.5 48.7 2.5 76.5 0 27.8-2.1 60.7-2.5 76.5-.4 11.8-6.6 18.5-19.3 8.8C101 194 86 182.7 71 171.6c-7-5.2-13.7-10.9-29.5-10.9-15.7 0-22.1-9.7-23-18.6-1-8.9-1.5-20.3-1.5-22 0-1.7.5-13.2 1.5-22s7.3-18.6 23-18.6S64 73.6 71 68.4c6.9-5.1 26-19.3 44.9-33.7zm55.8 44.6c9.4 10.9 14.5 24.9 14.5 39.4 0 16.1-6.5 31.5-17.8 42.9-3.6 3.6-9.7 2.9-12.7-1.3-2.4-3.3-2.2-8 .7-10.9 8.1-8.1 12.7-19.2 12.8-30.7 0-10.3-3.6-20.3-10.3-28.1-2.8-3.3-3-8-.3-11.3 3.1-3.7 8.6-4.1 12.2-1 .2.3.6.7.9 1zm24.8-26C212.9 71 222 94.4 222 118.6c0 25.7-10.2 50.4-28.4 68.4-3.4 3.4-8.9 3.3-12.2-.2l-.5-.5c-2.8-3.4-2.5-8.4.6-11.5 14.9-14.8 23.3-35 23.3-56.1 0-19.9-7.5-39.1-21-53.7-3-3.2-3-8.2-.1-11.4 3.2-3.6 8.6-3.9 12.2-.6.3 0 .5.1.6.3z"/></svg>