<svg xmlns="http://www.w3.org/2000/svg" viewBox="0 0 200 200" fill="none" class="jw-icon jw-svg-icon-buffer"><defs><linearGradient id="a"><stop offset="0%" stop-color="#09194d00"/><stop offset="100%" stop-color="#09194d00"/></linearGradient><linearGradient id="b"><stop offset="0%" stop-color="#09194D"/><stop offset="100%" stop-color="#09194d00"/></linearGradient><linearGradient id="c" gradientTransform="rotate(90)"><stop offset="0%" stop-color="#062794"/><stop offset="100%" stop-color="#09194D"/></linearGradient><linearGradient id="d"><stop offset="0%" stop-color="#062794"/><stop offset="100%" stop-color="#095AE5"/></linearGradient><linearGradient id="e" gradientTransform="rotate(45)"><stop offset="0%" stop-color="#095AE5"/><stop offset="100%" stop-color="#0FFFFF"/></linearGradient><linearGradient id="g" gradientTransform="rotate(90)"><stop offset="0%" stop-color="#0FFFFF"/><stop offset="100%" stop-color="#FFF"/></linearGradient><linearGradient id="f" gradientTransform="rotate(90)"><stop offset="0%" stop-color="#f6ffff"/><stop offset="100%" stop-color="#FFF"/></linearGradient></defs><g stroke="currentColor" stroke-width="16" stroke-linecap="round"><path stroke="url(#a)" d="M184 100a84 84 0 0 1-58 80"/><path stroke="url(#b)" d="M126 180a84 84 0 0 1-94-31" stroke-dasharray="106"><animate attributeName="strokeDashoffset" keyTimes="0; 0.4; 0.5; 0.6; 1" values="106; 106; 212; 106; 106" dur="2.6s" repeatCount="indefinite"/></path><path stroke="url(#c)" d="M32 149a84 84 0 0 1 0-98" stroke-dasharray="105"><animate attributeName="strokeDashoffset" keyTimes="0; 0.3; 0.4; 0.6; 0.7; 1" values="105; 105; 210; 210; 105; 105" dur="2.6s" repeatCount="indefinite"/></path><path stroke="url(#d)" d="M32 51a84 84 0 0 1 94-31" stroke-dasharray="106"><animate attributeName="strokeDashoffset" keyTimes="0; 0.2; 0.3; 0.7; 0.8; 1" values="106; 106; 212; 212; 106; 106" dur="2.6s" repeatCount="indefinite"/></path><path stroke="url(#e)" d="M126 20a84 84 0 0 1 54 54" stroke-dasharray="80"><animate attributeName="strokeDashoffset" keyTimes="0; 0.1; 0.2; 0.8; 0.9; 1" values="80; 80; 160; 160; 80; 80" dur="2.6s" repeatCount="indefinite"/></path><path stroke="url(#f)" d="M184 97a84 84 0 0 1 0 2"/><path stroke="url(#g)" d="M180 74a84 84 0 0 1 4 26" stroke-dasharray="25"><animate attributeName="strokeDashoffset" keyTimes="0; 0.1; 0.9; 1" values="35; 50; 50; 35" dur="2.6s" repeatCount="indefinite"/></path></g></svg>