<svg xmlns="http://www.w3.org/2000/svg" viewBox="0 0 240 240" class="jw-svg-icon jw-svg-icon-sharing"><path d="M132.3 204.5c3.3 1.1 6 .5 8.2-1.6l77-77.4c1.6-1.6 2.5-3.6 2.5-5.8s-.8-3.8-2.5-4.9l-77-77.4c-2.2-2.2-4.9-2.7-8.2-1.6-3.3 1.1-4.9 3.6-4.9 7.4v47l-8.2-.8c-12.6-.5-24-3-34.4-7.4-13.2-5.8-27.6-15.7-43.5-30l-8.2-7.4c-2.2-2.2-4.9-2.6-8.2-1.2s-4.9 3.7-4.9 7l.8 10.7c1.1 8.8 3 17.3 5.7 25.5 3.3 11.5 8.2 21.7 14.8 30.5 7.7 11 17.5 19.5 29.5 25.5 13.1 6.6 27.9 11.3 44.3 14 4.4.5 8.5 1.1 12.3 1.6V197c0 3.3 1.6 5.8 4.9 7.5zm3.3-61-4.9-.8c-4.4 0-8.7-.5-13.1-1.6-14.8-2.2-28.1-6.3-40.2-12.4-17.5-8.8-29.8-24.4-36.9-47-1.1-3.8-1.9-8-2.5-12.4C52.8 82 66.2 90.9 78.2 96.1s25.4 8.1 40.2 8.7c4.4.5 8.7.5 13.1 0h4.9-4.9 4.9c2.2-.5 3.8-1.5 4.9-2.9 1.1-1.4 1.6-3.2 1.6-5.4V61.1l58.2 58.5-58.1 58.5v-27.2c0-2.2-.7-4-2-5.4s-3.2-2-5.4-2z"/></svg>