<svg xmlns="http://www.w3.org/2000/svg" viewBox="0 0 240 240" class="jw-svg-icon jw-svg-icon-quality-100"><path d="M151.1 205H88.9c-16.9 0-28.4-.3-34.4-.8-9.8-1.7-17.5-5.1-23-10.3s-8.7-13.1-9.8-23.5c-1.1-6.1-1.6-17.6-1.6-34.7v-31.4c0-17.1.5-28.6 1.6-34.7 1.1-10.5 4.4-18.3 9.8-23.5s13.1-8.7 23-10.3c6-.6 17.5-.8 34.4-.8h62.3c16.9 0 28.4.3 34.4.8 9.8 1.7 17.5 5.1 23 10.3 5.5 5.2 8.7 13.1 9.8 23.5 1.1 6.1 1.6 17.6 1.6 34.7v31.4c0 17.1-.5 28.6-1.6 34.7-1.1 10.5-4.4 18.3-9.8 23.5-5.5 5.2-13.1 8.7-23 10.3-6 .5-17.5.8-34.5.8zm52.5-36.3c.5-5.5.8-16.5.8-33v-31.4c0-6.1-2.2-11.4-6.6-16.1-4.4-4.7-9.8-7-16.4-7h-123c-6.6 0-12 2.3-16.4 7-4.4 4.7-6.6 10-6.6 16.1v31.4c0 16.5.3 27.5.8 33 1.1 6.6 3 11.3 5.7 14 2.7 2.8 7.7 4.7 14.8 5.8 4.9.6 15.6.8 32 .8H151c16.4 0 27-.3 32-.8 7.1-1.1 12-3 14.8-5.8s4.7-7.4 5.8-14zM181.5 65.5c8.2 0 15.6 2.5 22.1 7.4v-1.7c-1.1-6.6-3-11.3-5.7-14-2.7-2.8-7.7-4.7-14.8-5.8-4.9-.6-15.8-.8-32.8-.8H89.7c-16.9 0-27.9.3-32.8.8-7.1 1.1-12 3-14.8 5.8-2.7 2.8-4.6 7.4-5.7 14V73c6.6-5 13.9-7.4 22.1-7.4h123zm-66.4 103.2 36.9-21.5c2.7-2.2 4.4-4.1 4.9-5.8 1.6-3.9 1.6-7.7 0-11.6-.5-2.2-2.2-4.1-4.9-5.8l-42.6-25.6c-2.7-1.1-5.2-1.7-7.4-1.7-4.4.6-7.7 2.5-9.8 5.8-1.6 1.7-2.5 4.1-2.5 7.4v51.2c0 2.8.8 5.2 2.5 7.4 2.2 3.3 5.5 5.2 9.8 5.8 2.2 0 4.6-.6 7.4-1.7l5.7-3.9zm-7.4-13.2c-1.6 1.1-2.7 1.7-3.3 1.7v-43.7l36.9 22.3-33.6 19.7z"/></svg>