<svg xmlns="http://www.w3.org/2000/svg" viewBox="0 0 240 240"><path d="M119.2 46zM120.8 46zM219.2 87.3c-.5-6.6-1.9-12.1-4.1-16.5-3.8-6.6-9-11.8-15.6-15.7-4.4-2.8-10.1-4.4-17.2-5h-22.1l-5.7-.8h-1.6L139 36.9c-3.3-2.8-6-4.7-8.2-5.8-3.3-2.8-6.8-4.1-10.7-4.1s-7.4 1.4-10.7 4.1c-2.2 1.1-4.9 3-8.2 5.8l-14 12.4h-1.6l-5.7.8H57.7c-7.1.6-12.8 2.2-17.2 5-6.6 3.9-11.7 9.1-15.6 15.7-2.2 4.4-3.6 9.9-4.1 16.5-.5 4.4-.8 12.1-.8 23.1v31.4c0 17.1.5 28.7 1.6 34.7 1.1 10.5 4.5 18.6 10.2 24.4 5.7 5.8 13.8 9.5 24.2 11.2 6 .6 17.5.8 34.4.8h59c16.9 0 28.4-.3 34.4-.8 10.4-1.7 18.4-5.4 24.2-11.2 5.7-5.8 9.2-13.9 10.2-24.4 1.1-6.1 1.6-17.6 1.6-34.7v-31.4c.2-10.9-.1-18.6-.6-23.1zM68.8 105.5c1.9-1.7 4.2-2.5 7-2.5h50c2.7 0 5.1.8 7 2.5 1.9 1.7 2.9 3.9 2.9 6.6s-1 5.1-2.9 7c-1.9 1.9-4.2 2.9-7 2.9h-50c-2.7 0-5.1-1-7-2.9-1.9-1.9-2.9-4.3-2.9-7s1-4.9 2.9-6.6zm102.4 60c-1.9 1.9-4.2 2.9-7 2.9H75.7c-2.7 0-5.1-1-7-2.9-1.9-1.9-2.9-4-2.9-6.2v-.8c0-2.2 1-4.3 2.9-6.2 1.9-1.9 4.2-2.9 7-2.9h88.5c2.7 0 5.1 1 7 2.9 1.9 1.9 2.9 4.1 2.9 6.6 0 2.4-1 4.6-2.9 6.6z"/><path d="M199.9 89c-.3-3.9-1-6.9-2-9.1-1.6-3.3-4.4-6.1-8.2-8.3-1.6-1.1-4.4-1.8-8.2-2.1-3.8-.3-11.2-.4-22.1-.4h-.8c-3.8 0-6.7-.3-8.6-.8-1.9-.6-3.8-1.2-5.7-2.1-1.9-.8-4.2-2.6-7-5.4l-17.3-14-17.2 14.1c-2.7 2.8-5.1 4.5-7 5.4-1.9.8-3.8 1.5-5.7 2.1s-4.8.8-8.6.8h-.8c-10.9 0-18.3.1-22.1.4-3.8.3-6.6 1-8.2 2.1-3.8 2.2-6.6 5-8.2 8.3-1.1 2.2-1.8 5.2-2 9.1-.3 3.9-.4 11-.4 21.5v30.6c0 17.1.3 28.4.8 33.9s2.2 9.6 4.9 12.4 7.1 4.4 13.1 5c5.5 1.1 16.4 1.7 32.8 1.7h57.4c16.4 0 27.5-.4 33.2-1.2 5.7-.8 10-2.6 12.7-5.4s4.4-6.9 4.9-12.4.8-16.8.8-33.9v-30.6c-.1-10.7-.2-17.8-.5-21.7zM68.5 105.8c1.9-1.7 4.2-2.5 7-2.5h50c2.7 0 5.1.8 7 2.5 1.9 1.7 2.9 3.9 2.9 6.6s-1 5.1-2.9 7c-1.9 1.9-4.2 2.9-7 2.9h-50c-2.7 0-5.1-1-7-2.9-1.9-1.9-2.9-4.3-2.9-7s1-5 2.9-6.6zM171 165.7c-1.9 1.9-4.2 2.9-7 2.9H75.5c-2.7 0-5.1-1-7-2.9-1.9-1.9-2.9-4-2.9-6.2v-.8c0-2.2 1-4.3 2.9-6.2 1.9-1.9 4.2-2.9 7-2.9H164c2.7 0 5.1 1 7 2.9 1.9 1.9 2.9 4.1 2.9 6.6-.1 2.5-1 4.7-2.9 6.6z"/></svg>