<svg xmlns="http://www.w3.org/2000/svg" viewBox="0 0 240 240"><path d="M90.5 213h59c16.9 0 28.4-.3 34.4-.8 10.4-1.7 18.4-5.4 24.2-11.2 5.7-5.8 9.2-13.9 10.2-24.4 1.1-6.1 1.6-17.6 1.6-34.7v-31.4c0-11-.3-18.7-.8-23.1-.5-6.6-1.9-12.1-4.1-16.5-3.8-6.6-9-11.8-15.6-15.7-4.4-2.8-10.1-4.4-17.2-5h-22.1l-5.7-.8h-1.6L138.9 37c-3.3-2.8-6-4.7-8.2-5.8-3.3-2.8-6.8-4.1-10.7-4.1s-7.4 1.4-10.7 4.1c-2.2 1.1-4.9 3-8.2 5.8L87.2 49.3h-1.6l-5.7.8H57.7c-7.1.6-12.8 2.2-17.2 5-6.6 3.9-11.7 9.1-15.6 15.7-2.2 4.4-3.6 9.9-4.1 16.5-.5 4.4-.8 12.1-.8 23.1v31.4c0 17.1.5 28.7 1.6 34.7 1.1 10.5 4.5 18.6 10.2 24.4s13.8 9.5 24.2 11.2c6.1.6 17.6.9 34.5.9zm-32-20.7c-6-.6-10.4-2.2-13.1-5s-4.4-6.9-4.9-12.4-.8-16.8-.8-33.9v-30.6c0-10.5.1-17.6.4-21.5s1-6.9 2-9.1c1.6-3.3 4.4-6.1 8.2-8.3 1.6-1.1 4.4-1.8 8.2-2.1s11.2-.4 22.1-.4h.8c3.8 0 6.7-.3 8.6-.8 1.9-.6 3.8-1.2 5.7-2.1 1.9-.8 4.2-2.6 7-5.4L120 46.8l17.2 14.1c2.7 2.8 5.1 4.5 7 5.4 1.9.8 3.8 1.5 5.7 2.1s4.8.8 8.6.8h.8c10.9 0 18.3.1 22.1.4 3.8.3 6.6 1 8.2 2.1 3.8 2.2 6.6 5 8.2 8.3 1.1 2.2 1.8 5.2 2 9.1s.4 11 .4 21.5v30.6c0 17.1-.3 28.4-.8 33.9s-2.2 9.6-4.9 12.4-7 4.5-12.7 5.4c-5.7.8-16.8 1.2-33.2 1.2H91.3c-16.4-.1-27.3-.7-32.8-1.8zM119.2 46zm1.6 0zM65.9 159.3c0 2.2 1 4.3 2.9 6.2 1.9 1.9 4.2 2.9 7 2.9h88.5c2.7 0 5.1-1 7-2.9 1.9-1.9 2.9-4.1 2.9-6.6s-1-4.7-2.9-6.6c-1.9-1.9-4.2-2.9-7-2.9H75.7c-2.7 0-5.1 1-7 2.9-1.9 1.9-2.9 4-2.9 6.2v.8zm9.8-37.2c-2.7 0-5.1-1-7-2.9-1.9-1.9-2.9-4.3-2.9-7 0-2.8 1-5 2.9-6.6 1.9-1.7 4.2-2.5 7-2.5h50c2.7 0 5.1.8 7 2.5 1.9 1.7 2.9 3.9 2.9 6.6 0 2.8-1 5.1-2.9 7-1.9 1.9-4.2 2.9-7 2.9h-50z"/></svg>