<svg class="jw-svg-icon jw-svg-icon-playback-rate" xmlns="http://www.w3.org/2000/svg" viewBox="0 0 240 240"><path d="M120 220c-6.6 0-13.1-.5-19.7-1.6-2.2-.5-3.8-1.8-4.9-3.7-1.1-1.9-1.4-3.8-.8-5.7.5-1.9 1.6-3.6 3.3-4.9 1.6-1.4 3.6-1.8 5.7-1.2 5.5 1.1 10.9 1.6 16.4 1.6 15.3 0 29.4-3.8 42.2-11.5 12.8-7.7 23.1-17.9 30.7-30.7 7.7-12.8 11.5-26.9 11.5-42.2s-3.8-29.4-11.5-42.2-17.8-23.2-30.7-30.9c-12.8-7.7-26.9-11.5-42.2-11.5-5.5 0-10.9.5-16.4 1.6-2.2.5-4.1.1-5.7-1.2-1.6-1.4-2.7-3-3.3-4.9s-.3-3.8.8-5.7 2.7-3.1 4.9-3.7c6.6-1.1 13.1-1.6 19.7-1.6 18 0 34.7 4.5 50 13.5s27.5 21.2 36.5 36.5 13.5 32 13.5 50-4.5 34.7-13.5 50c-9 15.3-21.2 27.5-36.5 36.5S138 220 120 220zm-46.7-29.5c1.6 1.1 2.6 2.7 2.9 4.9.3 2.2-.1 4.1-1.2 5.7-1.1 1.6-2.6 2.7-4.5 3.3-1.9.5-4 0-6.1-1.6-10.9-7.1-19.9-16.1-27-27-1.6-2.2-2.2-4.2-1.6-6.1.5-1.9 1.6-3.4 3.3-4.5s3.6-1.5 5.7-1.2c2.2.3 3.8 1.2 4.9 2.9 6.4 9.1 14.3 17 23.6 23.6zm-42.6-45.1c2.2-.5 4-1.6 5.3-3.3 1.4-1.6 1.8-3.6 1.2-5.7-1.1-5.5-1.6-10.9-1.6-16.4s.5-10.9 1.6-16.4c.5-2.2.1-4.1-1.2-5.7-1.4-1.6-3-2.7-4.9-3.3s-3.8-.3-5.7.8-3.1 2.7-3.7 4.9c-1.1 6.6-1.6 13.1-1.6 19.7s.5 13.1 1.6 19.7c.5 2.2 1.8 3.8 3.7 4.9s3.6 1.4 5.3.8zm18.8-72.1c-1.1 1.6-2.7 2.6-4.9 2.9-2.2.3-4.1-.1-5.7-1.2-1.6-1.1-2.7-2.6-3.3-4.5-.5-1.9 0-4 1.6-6.1 7.1-10.9 16.1-19.9 27-27 2.2-1.6 4.2-2.2 6.1-1.6 1.9.5 3.4 1.6 4.5 3.3 1.1 1.6 1.5 3.6 1.2 5.7-.3 2.2-1.2 3.8-2.9 4.9-9.1 6.4-17 14.3-23.6 23.6zm65.6 80.3c-2.7 1.6-4.6 2.7-5.7 3.3-2.7 1.1-5.2 1.6-7.4 1.6-4.4-.5-7.7-2.5-9.8-5.7-1.6-1.6-2.5-4.1-2.5-7.4V94.6c0-3.3.8-5.7 2.5-7.4 2.2-3.3 5.5-5.2 9.8-5.7 2.2 0 4.6.5 7.4 1.6l42.6 25.4c2.7 1.6 4.4 3.6 4.9 5.7 1.6 3.8 1.6 7.7 0 11.5-.5 2.2-2.2 4.1-4.9 5.7l-36.9 22.2zm-10.7-11.5c.5-.5 1.6-1.4 3.3-2.5l33.6-19.7-36.9-22.1v44.3z"/></svg>