<svg class="jw-svg-icon jw-svg-icon-forward" xmlns="http://www.w3.org/2000/svg" viewBox="0 0 240 240"><path d="m115.6 181.9 54.5-58.2c1.9-2.1 1.9-5.3 0-7.4l-54.5-58.1c-5.7-6-6.7-16-1.5-22.5 5.4-6.7 14.8-7.6 21.1-1.9l.9.9 69.3 73.9c5.9 6.4 5.9 16.3 0 22.7l-69.3 73.9c-5.3 5.9-14.4 6.3-20.3 1l-.9-.9c-.4-.4-.7-.8-1.1-1.3-4.8-6.4-3.7-16.1 1.8-22.1zm-46.4-65.6L35.1 79.9c-6.2-6.7-6.6-18 .1-24.2 5.7-5.5 14.8-5.3 20.3.5l.3.3 48.9 52.2c5.9 6.4 5.9 16.3 0 22.7l-48.3 51.5c-5.6 5.9-14.7 7.1-20.7 1.8-6.5-5.6-7.4-15.7-2.2-22.6.3-.4.7-.8 1-1.2l34.7-37.1c1.9-2.2 1.9-5.4 0-7.5z"/></svg>