<svg class="jw-svg-icon jw-svg-icon-rewind" xmlns="http://www.w3.org/2000/svg" viewBox="0 0 240 240"><path d="M124.4 181.9c5.6 5.9 6.7 15.6 1.7 22.1-5.2 6.9-14.7 7.9-21.1 2.4-.4-.4-.8-.7-1.2-1.1l-69.3-73.9c-5.9-6.4-5.9-16.3 0-22.7l69.3-73.9c5.3-5.9 14.4-6.4 20.3-1 .7.6 1.3 1.3 1.8 2 5.2 6.5 4.2 16.4-1.5 22.5l-54.5 58.1c-1.9 2.1-1.9 5.3 0 7.4l54.5 58.1zm46.5-65.6c-1.9 2.1-1.9 5.3 0 7.4l34.8 37.1c6.3 6.9 5.8 17.5-1.1 23.8-6.1 5.3-15.2 4.2-20.8-1.7l-48.3-51.5c-5.9-6.4-5.9-16.3 0-22.7l48.9-52.2c5.3-5.9 14.4-6.3 20.3-1l.3.3c6.6 6.2 6.3 17.5.1 24.2l-34.2 36.3z"/></svg>