<svg xmlns="http://www.w3.org/2000/svg" viewBox="0 0 240 240" class="jw-svg-icon jw-svg-icon-pip-off"><path d="M92.2 131.4c-2.3-2.3-3.8-5.5-4.3-9.6V85.9c.6-4.7 2-8.2 4.3-10.5 2.3-2.3 5.5-3.8 9.6-4.4h68.6c4.6.6 8 2 10 4.4 2 2.3 3.3 5.8 3.9 10.5.6 2.9.9 8.9.9 17.9s-.3 15-.9 17.9c-.6 4.1-1.9 7.3-3.9 9.6s-5.4 3.8-10 4.4c-2.9.6-9 .9-18.2.9H120c-8.7 0-14.8-.3-18.2-.9-4.1-.6-7.3-2-9.6-4.3zM87 210c-18 0-30.1-.3-36.5-.9-10.4-1.7-18.5-5.4-24.3-10.9-5.8-5.5-9.3-13.8-10.4-24.9-1.2-6.4-1.7-18.6-1.7-36.7v-33.2c0-18.1.6-30.3 1.7-36.7 1.2-11.1 4.6-19.4 10.4-24.9 5.8-5.5 13.9-9.2 24.3-10.9C56.9 30.3 69 30 87 30h66c18 0 30.1.3 36.5.9 10.4 1.7 18.5 5.4 24.3 10.9 5.8 5.5 9.3 13.8 10.4 24.9 1.2 6.4 1.7 18.6 1.7 36.7v33.2c0 18.1-.6 30.3-1.7 36.7-1.2 11.1-4.6 19.4-10.4 24.9-5.8 5.5-13.9 9.2-24.3 10.9-6.4.6-18.5.9-36.5.9H87zm-49.5-23.6c2.9 2.9 8.1 5 15.6 6.1 5.2.6 16.5.9 33.9.9h66c17.4 0 28.7-.3 33.9-.9 7.5-1.2 12.7-3.2 15.6-6.1 2.9-2.9 4.9-7.9 6.1-14.9.6-5.8.9-17.5.9-35v-33.2c0-17.5-.3-29.1-.9-35-1.2-7-3.2-11.9-6.1-14.9-2.9-2.9-8.1-5-15.6-6.1-5.2-.6-16.8-.9-34.8-.9H87.9c-18 0-29.5.3-34.8.9-7.5 1.2-12.7 3.2-15.6 6.1-2.9 2.9-4.9 7.9-6.1 14.9-.6 5.8-.9 17.5-.9 35v33.2c0 17.5.3 29.1.9 35 1.1 7 3.2 12 6.1 14.9z"/></svg>