<svg class="jw-svg-icon jw-svg-icon-volume-0" xmlns="http://www.w3.org/2000/svg" viewBox="0 0 240 240"><path d="M118.5 206.9c-9-6.6-38.4-28.8-45.6-34.1s-14.7-12.2-31.1-12.3-22.4-10-23.3-19.1c-.7-7.4-1.1-14.9-1.3-22.4 0-1.2 0-7.5.4-14.3.2-3.5 4.3-5.3 7.1-3.2L126 177.8c7.1 5.4 9.7 10.5 9.4 18.7-.1 13.2-7.9 16.9-16.9 10.4zM118 33.4c13.4-9.8 17.3 3.5 18 14.8 1.2 17.4 1.5 34.1 1.9 59.5.1 8.7-9.5 2.7-12.9 0L78 70.1c-2-1.5-2.3-4.3-.8-6.3.3-.4.6-.7.9-.9 9.6-7 24.6-18.4 39.9-29.5zm41.3 147.4L20.4 75.4c-4.4-3.4-4.2-10.7-.8-15 3.5-4.3 10.5-5.2 14.9-1.8l138.9 104.6c4.4 3.4 4.6 10.7 1.1 15-3.4 4.3-10.8 6-15.2 2.6"/></svg>